<?xml version="1.0" standalone="no"?>
<!DOCTYPE svg PUBLIC "-//W3C//DTD SVG 1.1//EN" "http://www.w3.org/Graphics/SVG/1.1/DTD/svg11.dtd" >
<svg xmlns="http://www.w3.org/2000/svg">
<metadata></metadata>
<defs>
<font id="mallard_blockycondensed" horiz-adv-x="384" >
<font-face units-per-em="1024" ascent="819" descent="-205" />
<missing-glyph horiz-adv-x="500" />
<glyph horiz-adv-x="1024" />
<glyph horiz-adv-x="1024" />
<glyph unicode="&#xd;" horiz-adv-x="1024" />
<glyph unicode=" " />
<glyph unicode="!" d="M128 64v-128h64v128h-64zM128 192h64v640h-64v-640z" />
<glyph unicode="&#x22;" d="M64 448h64v384h-64v-384zM192 448h64v384h-64v-384z" />
<glyph unicode="#" d="M0 192h64v-256h64v256h64v-256h64v256h64v128h-64v128h64v128h-64v256h-64v-256h-64v256h-64v-256h-64v-128h64v-128h-64v-128zM128 320v128h64v-128h-64z" />
<glyph unicode="$" d="M0 64h32v-64h32v-64h192v64h32v64h32v256h-32v64h-32v64h-64v256h32v-64h32v-64h64v128h-32v64h-32v64h-192v-64h-32v-64h-32v-256h32v-64h32v-64h64v-256h-32v64h-32v64h-64v-128zM64 512v128h32v64h32v-256h-32v64h-32zM192 64v256h32v-64h32v-128h-32v-64h-32z" />
<glyph unicode="%" d="M0 64h64v64h32v64h32v64h32v64h32v64h32v64h32v64h32v64h32v128h-64v-64h-32v-64h-32v-64h-32v-64h-32v-64h-32v-64h-32v-64h-32v-64h-32v-128zM0 576h128v256h-128v-256zM192 -64h128v256h-128v-256z" />
<glyph unicode="&#x26;" d="M0 64h32v-64h32v-64h128v64h64v-64h64v128h-32v128h32v128h-64v-64h-64v64h-32v128h32v256h-32v64h-32v64h-64v-64h-32v-64h-32v-256h32v-128h-32v-256zM64 128v128h64v-64h32v-128h-64v64h-32zM64 512v128h64v-128h-64z" />
<glyph unicode="'" d="M128 448h64v384h-64v-384z" />
<glyph unicode="(" d="M64 192h32v-64h32v-64h32v-64h32v-64h64v128h-32v64h-32v64h-32v64h-32v256h32v64h32v64h32v64h32v128h-64v-64h-32v-64h-32v-64h-32v-64h-32v-384z" />
<glyph unicode=")" d="M64 64v-128h64v64h32v64h32v64h32v64h32v384h-32v64h-32v64h-32v64h-32v64h-64v-128h32v-64h32v-64h32v-64h32v-256h-32v-64h-32v-64h-32v-64h-32z" />
<glyph unicode="*" d="M0 64h64v64h32v64h32v-256h64v256h32v-64h32v-64h64v128h-32v64h-32v64h-64v128h64v64h32v64h32v128h-64v-64h-32v-64h-32v256h-64v-256h-32v64h-32v64h-64v-128h32v-64h32v-64h64v-128h-64v-64h-32v-64h-32v-128z" />
<glyph unicode="+" d="M0 320h128v-256h64v256h128v128h-128v256h-64v-256h-128v-128z" />
<glyph unicode="," d="M256 -64v-128h64v64h32v64h32v256h-64v-192h-32v-64h-32z" />
<glyph unicode="-" d="M64 320h192v128h-192v-128z" />
<glyph unicode="." d="M128 64v-128h64v128h-64z" />
<glyph unicode="/" d="M0 64h64v64h32v64h32v64h32v64h32v64h32v64h32v64h32v64h32v128h-64v-64h-32v-64h-32v-64h-32v-64h-32v-64h-32v-64h-32v-64h-32v-64h-32v-128z" />
<glyph unicode="0" d="M0 192h32v-64h32v-64h32v-64h32v-64h64v64h32v64h32v64h32v64h32v384h-32v64h-32v64h-32v64h-32v64h-64v-64h-32v-64h-32v-64h-32v-64h-32v-384zM64 256v256h32v64h32v64h64v-64h32v-64h32v-256h-32v-64h-32v-64h-64v64h-32v64h-32z" />
<glyph unicode="1" d="M64 64v-128h192v128h-64v768h-64v-128h-64v-128h64v-512h-64z" />
<glyph unicode="2" d="M0 -64h320v128h-256v64h32v64h32v64h32v64h96v64h32v64h32v256h-32v64h-32v64h-192v-64h-32v-64h-32v-128h64v64h32v64h128v-64h32v-128h-32v-64h-96v-64h-32v-64h-32v-64h-32v-64h-32v-256z" />
<glyph unicode="3" d="M0 64h32v-64h32v-64h192v64h32v64h32v256h-32v64h-32v128h32v64h32v256h-320v-128h256v-64h-32v-64h-32v-128h-64v-128h96v-64h32v-128h-32v-64h-128v64h-32v64h-64v-128z" />
<glyph unicode="4" d="M0 192h192v-256h64v256h64v128h-64v512h-64v-128h-64v-64h-32v-64h-32v-64h-32v-64h-32v-256zM64 320v64h32v64h32v64h32v64h32v-256h-128z" />
<glyph unicode="5" d="M0 64h32v-64h32v-64h192v64h32v64h32v384h-32v64h-32v64h-192v128h256v128h-320v-384h224v-64h32v-256h-32v-64h-128v64h-32v64h-64v-128z" />
<glyph unicode="6" d="M0 64h32v-64h32v-64h192v64h32v64h32v256h-32v64h-32v64h-192v64h32v64h32v64h32v64h96v128h-128v-64h-32v-64h-32v-64h-32v-64h-32v-512zM64 128v192h160v-64h32v-128h-32v-64h-128v64h-32z" />
<glyph unicode="7" d="M0 704h256v-64h-32v-64h-32v-64h-32v-64h-32v-64h-32v-64h-32v-384h64v320h32v64h32v64h32v64h32v64h32v64h32v256h-320v-128z" />
<glyph unicode="8" d="M0 64h32v-64h32v-64h192v64h32v64h32v256h-32v128h32v256h-32v64h-32v64h-192v-64h-32v-64h-32v-256h32v-128h-32v-256zM64 128v128h32v64h128v-64h32v-128h-32v-64h-128v64h-32zM64 512v128h32v64h128v-64h32v-128h-32v-64h-128v64h-32z" />
<glyph unicode="9" d="M0 448h32v-64h32v-64h192v-64h-32v-64h-32v-64h-32v-64h-96v-128h128v64h32v64h32v64h32v64h32v512h-32v64h-32v64h-192v-64h-32v-64h-32v-256zM64 512v128h32v64h128v-64h32v-192h-160v64h-32z" />
<glyph unicode=":" d="M128 64v-128h64v128h-64zM128 448h64v128h-64v-128z" />
<glyph unicode=";" d="M64 -64v-128h64v64h32v64h32v256h-64v-192h-32v-64h-32zM128 448h64v128h-64v-128z" />
<glyph unicode="&#x3c;" d="M0 320h32v-64h32v-64h32v-64h32v-64h32v-64h32v-64h64v128h-32v64h-32v64h-32v64h-32v64h-32v128h32v64h32v64h32v64h32v64h32v128h-64v-64h-32v-64h-32v-64h-32v-64h-32v-64h-32v-64h-32v-128z" />
<glyph unicode="=" d="M0 192h320v128h-320v-128zM0 448h320v128h-320v-128z" />
<glyph unicode="&#x3e;" d="M128 64v-128h64v64h32v64h32v64h32v64h32v64h32v64h32v128h-32v64h-32v64h-32v64h-32v64h-32v64h-32v64h-64v-128h32v-64h32v-64h32v-64h32v-64h32v-128h-32v-64h-32v-64h-32v-64h-32v-64h-32z" />
<glyph unicode="?" d="M0 576h64v64h32v64h128v-128h-32v-64h-32v-64h-32v-256h64v192h32v64h32v64h32v64h32v128h-32v64h-32v64h-192v-64h-32v-64h-32v-128zM128 64v-128h64v128h-64z" />
<glyph unicode="@" d="M0 64h32v-64h32v-64h192v128h-160v64h-32v512h32v64h128v-64h32v-64h-128v-384h192v512h-32v64h-32v64h-192v-64h-32v-64h-32v-640zM192 320v128h64v-128h-64z" />
<glyph unicode="A" d="M0 -64h64v256h192v-256h64v640h-32v64h-32v64h-32v64h-32v64h-64v-64h-32v-64h-32v-64h-32v-64h-32v-640zM64 320v192h32v64h32v64h64v-64h32v-64h32v-192h-192z" />
<glyph unicode="B" d="M0 -64h256v64h32v64h32v256h-32v128h32v256h-32v64h-32v64h-256v-896zM64 64v256h160v-64h32v-128h-32v-64h-160zM64 448v256h160v-64h32v-128h-32v-64h-160z" />
<glyph unicode="C" d="M0 64h32v-64h32v-64h192v64h32v64h32v128h-64v-64h-32v-64h-128v64h-32v512h32v64h128v-64h32v-64h64v128h-32v64h-32v64h-192v-64h-32v-64h-32v-640z" />
<glyph unicode="D" d="M0 -64h256v64h32v64h32v640h-32v64h-32v64h-256v-896zM64 64v640h160v-64h32v-512h-32v-64h-160z" />
<glyph unicode="E" d="M0 -64h320v128h-256v256h192v128h-192v256h256v128h-320v-896z" />
<glyph unicode="F" d="M0 -64h64v384h192v128h-192v256h256v128h-320v-896z" />
<glyph unicode="G" d="M0 64h32v-64h32v-64h256v384h-128v-128h64v-128h-160v64h-32v512h32v64h128v-64h32v-64h64v128h-32v64h-32v64h-192v-64h-32v-64h-32v-640z" />
<glyph unicode="H" d="M0 -64h64v384h192v-384h64v896h-64v-384h-192v384h-64v-896z" />
<glyph unicode="I" d="M64 64v-128h192v128h-64v640h64v128h-192v-128h64v-640h-64z" />
<glyph unicode="J" d="M0 64h32v-64h32v-64h192v64h32v64h32v768h-64v-704h-32v-64h-128v64h-32v64h-64v-128z" />
<glyph unicode="K" d="M0 -64h64v384h32v-64h32v-64h32v-64h32v-64h32v-64h32v-64h64v128h-32v64h-32v64h-32v64h-32v64h-32v128h32v64h32v64h32v64h32v64h32v128h-64v-64h-32v-64h-32v-64h-32v-64h-32v-64h-32v-64h-32v384h-64v-896z" />
<glyph unicode="L" d="M0 -64h320v128h-256v768h-64v-896z" />
<glyph unicode="M" d="M0 -64h64v640h32v-64h32v-192h64v192h32v64h32v-640h64v896h-64v-128h-64v-64h-64v64h-64v128h-64v-896z" />
<glyph unicode="N" d="M0 -64h64v512h32v-64h32v-64h32v-64h32v-64h64v-256h64v896h-64v-512h-32v64h-32v64h-32v64h-32v64h-64v256h-64v-896z" />
<glyph unicode="O" d="M0 64h32v-64h32v-64h192v64h32v64h32v640h-32v64h-32v64h-192v-64h-32v-64h-32v-640zM64 128v512h32v64h128v-64h32v-512h-32v-64h-128v64h-32z" />
<glyph unicode="P" d="M0 -64h64v384h192v64h32v64h32v256h-32v64h-32v64h-256v-896zM64 448v256h160v-64h32v-128h-32v-64h-160z" />
<glyph unicode="Q" d="M0 64h32v-64h32v-64h128v64h64v-64h64v128h-32v128h32v512h-32v64h-32v64h-192v-64h-32v-64h-32v-640zM64 128v512h32v64h128v-64h32v-384h-64v64h-64v-128h32v-128h-64v64h-32z" />
<glyph unicode="R" d="M0 -64h64v384h64v-128h32v-64h32v-64h32v-64h32v-64h64v128h-32v64h-32v64h-32v64h-32v64h64v64h32v64h32v256h-32v64h-32v64h-256v-896zM64 448v256h160v-64h32v-128h-32v-64h-160z" />
<glyph unicode="S" d="M0 64h32v-64h32v-64h192v64h32v64h32v256h-32v64h-32v64h-160v64h-32v128h32v64h128v-64h32v-64h64v128h-32v64h-32v64h-192v-64h-32v-64h-32v-256h32v-64h32v-64h160v-64h32v-128h-32v-64h-128v64h-32v64h-64v-128z" />
<glyph unicode="T" d="M0 704h128v-768h64v768h128v128h-320v-128z" />
<glyph unicode="U" d="M0 64h32v-64h32v-64h192v64h32v64h32v768h-64v-704h-32v-64h-128v64h-32v704h-64v-768z" />
<glyph unicode="V" d="M0 448h32v-64h32v-192h32v-64h32v-192h64v192h32v64h32v192h32v64h32v384h-64v-320h-32v-64h-32v-192h-64v192h-32v64h-32v320h-64v-384z" />
<glyph unicode="W" d="M0 64h32v-64h32v-64h64v64h64v-64h64v64h32v64h32v768h-64v-704h-64v192h-64v-192h-64v704h-64v-768z" />
<glyph unicode="X" d="M0 -64h64v192h32v64h32v64h64v-64h32v-64h32v-192h64v256h-32v64h-32v64h-32v128h32v64h32v64h32v256h-64v-192h-32v-64h-32v-64h-64v64h-32v64h-32v192h-64v-256h32v-64h32v-64h32v-128h-32v-64h-32v-64h-32v-256z" />
<glyph unicode="Y" d="M0 576h32v-64h32v-64h32v-64h32v-448h64v448h32v64h32v64h32v64h32v256h-64v-192h-32v-64h-32v-64h-64v64h-32v64h-32v192h-64v-256z" />
<glyph unicode="Z" d="M0 -64h320v128h-256v64h32v64h32v64h32v64h32v64h32v64h32v64h32v64h32v256h-320v-128h256v-64h-32v-64h-32v-64h-32v-64h-32v-64h-32v-64h-32v-64h-32v-64h-32v-256z" />
<glyph unicode="[" d="M0 -64h256v128h-192v640h192v128h-256v-896z" />
<glyph unicode="\" d="M0 576h32v-64h32v-64h32v-64h32v-64h32v-64h32v-64h32v-64h32v-64h64v128h-32v64h-32v64h-32v64h-32v64h-32v64h-32v64h-32v64h-32v64h-64v-128z" />
<glyph unicode="]" d="M0 64v-128h256v896h-256v-128h192v-640h-192z" />
<glyph unicode="^" d="M0 448h64v64h32v64h32v64h64v-64h32v-64h32v-64h64v128h-32v64h-32v64h-32v64h-32v64h-64v-64h-32v-64h-32v-64h-32v-64h-32v-128z" />
<glyph unicode="_" d="M0 64v-128h320v128h-320z" />
<glyph unicode="`" d="M64 576h32v-64h32v-64h64v128h-32v64h-32v192h-64v-256z" />
<glyph unicode="a" d="M0 64h32v-64h32v-64h256v512h-32v64h-32v64h-192v-128h160v-64h32v-64h-192v-64h-32v-64h-32v-128zM96 64v128h160v-128h-160z" />
<glyph unicode="b" d="M0 -64h256v64h32v64h32v384h-32v64h-32v64h-192v256h-64v-896zM64 64v384h160v-64h32v-256h-32v-64h-160z" />
<glyph unicode="c" d="M0 64h32v-64h32v-64h256v128h-224v64h-32v256h32v64h224v128h-256v-64h-32v-64h-32v-384z" />
<glyph unicode="d" d="M0 64h32v-64h32v-64h256v896h-64v-256h-192v-64h-32v-64h-32v-384zM64 128v256h32v64h160v-384h-160v64h-32z" />
<glyph unicode="e" d="M0 64h32v-64h32v-64h192v128h-160v64h-32v64h256v256h-32v64h-32v64h-192v-64h-32v-64h-32v-384zM64 320v64h32v64h128v-64h32v-64h-192z" />
<glyph unicode="f" d="M64 320h64v-384h64v384h64v128h-64v192h32v64h32v128h-64v-64h-32v-64h-32v-256h-64v-128z" />
<glyph unicode="g" d="M0 64h32v-64h32v-64h192v-64h-32v-64h-160v-128h192v64h32v64h32v768h-256v-64h-32v-64h-32v-384zM64 128v256h32v64h160v-384h-160v64h-32z" />
<glyph unicode="h" d="M0 -64h64v512h160v-64h32v-448h64v512h-32v64h-32v64h-192v256h-64v-896z" />
<glyph unicode="i" d="M64 64v-128h192v128h-64v512h-128v-128h64v-384h-64zM128 704h64v128h-64v-128z" />
<glyph unicode="j" d="M64 -192v-128h64v64h32v64h32v768h-64v-704h-32v-64h-32zM128 704h64v128h-64v-128z" />
<glyph unicode="k" d="M128 -64h64v256h32v-64h32v-64h32v-64h32v-64h64v128h-32v64h-32v64h-32v128h32v64h32v64h32v128h-64v-64h-32v-64h-32v-64h-32v-64h-32v512h-64v-896z" />
<glyph unicode="l" d="M64 64v-128h192v128h-64v768h-128v-128h64v-640h-64z" />
<glyph unicode="m" d="M0 -64h64v512h32v-64h32v-448h64v448h64v-448h64v512h-32v64h-32v64h-64v-64h-64v64h-128v-640z" />
<glyph unicode="n" d="M0 -64h64v512h160v-64h32v-448h64v512h-32v64h-32v64h-256v-640z" />
<glyph unicode="o" d="M0 64h32v-64h32v-64h192v64h32v64h32v384h-32v64h-32v64h-192v-64h-32v-64h-32v-384zM64 128v256h32v64h128v-64h32v-256h-32v-64h-128v64h-32z" />
<glyph unicode="p" d="M0 -320h64v256h192v64h32v64h32v384h-32v64h-32v64h-256v-896zM64 64v384h160v-64h32v-256h-32v-64h-160z" />
<glyph unicode="q" d="M0 64h32v-64h32v-64h192v-256h64v896h-256v-64h-32v-64h-32v-384zM64 128v256h32v64h160v-384h-160v64h-32z" />
<glyph unicode="r" d="M128 -64h64v384h64v64h32v64h96v128h-128v-64h-32v-64h-32v128h-64v-640z" />
<glyph unicode="s" d="M0 64v-128h256v64h32v64h32v128h-32v64h-32v64h-160v128h224v128h-256v-64h-32v-64h-32v-128h32v-64h32v-64h160v-128h-224z" />
<glyph unicode="t" d="M64 448h64v-384h32v-64h32v-64h64v128h-32v64h-32v320h64v128h-64v256h-64v-256h-64v-128z" />
<glyph unicode="u" d="M0 64h32v-64h32v-64h256v640h-64v-512h-160v64h-32v448h-64v-512z" />
<glyph unicode="v" d="M0 320h32v-64h32v-192h32v-64h32v-64h64v64h32v64h32v192h32v64h32v256h-64v-192h-32v-64h-32v-192h-64v192h-32v64h-32v192h-64v-256z" />
<glyph unicode="w" d="M0 64h32v-64h32v-64h64v64h64v-64h64v64h32v64h32v512h-64v-448h-64v192h-64v-192h-64v448h-64v-512z" />
<glyph unicode="x" d="M0 64v-128h64v64h32v64h32v64h64v-64h32v-64h32v-64h64v128h-32v64h-32v64h-32v128h32v64h32v64h32v128h-64v-64h-32v-64h-32v-64h-64v64h-32v64h-32v64h-64v-128h32v-64h32v-64h32v-128h-32v-64h-32v-64h-32z" />
<glyph unicode="y" d="M0 64h32v-64h32v-64h192v-64h-32v-64h-160v-128h192v64h32v64h32v768h-64v-512h-160v64h-32v448h-64v-512z" />
<glyph unicode="z" d="M0 64v-128h320v128h-192v64h32v64h32v64h32v64h32v128h64v128h-320v-128h192v-64h-32v-64h-32v-64h-32v-64h-32v-128h-64z" />
<glyph unicode="{" d="M128 320h32v-64h32v-192h32v-64h32v-64h128v128h-96v64h-32v192h-32v128h32v192h32v64h96v128h-128v-64h-32v-64h-32v-192h-32v-64h-32v-128z" />
<glyph unicode="|" d="M128 -64h64v896h-64v-896z" />
<glyph unicode="}" d="M0 64v-128h128v64h32v64h32v192h32v64h32v128h-32v64h-32v192h-32v64h-32v64h-128v-128h96v-64h32v-192h32v-128h-32v-192h-32v-64h-96z" />
<glyph unicode="~" d="M0 576h64v64h64v-64h32v-64h32v-64h64v64h32v64h32v128h-64v-64h-64v64h-32v64h-32v64h-64v-64h-32v-64h-32v-128z" />
<glyph unicode="&#xa0;" />
<glyph unicode="&#xa3;" d="M0 64v-128h320v128h-192v256h64v128h-64v192h32v64h64v-64h32v-64h64v128h-32v64h-32v64h-128v-64h-32v-64h-32v-256h-64v-128h64v-256h-64z" />
<glyph unicode="&#xa4;" d="M0 320h64v64h32v64h32v-384h64v384h32v-64h32v-64h64v128h-32v64h-32v64h-64v128h-64v-128h-64v-64h-32v-64h-32v-128z" />
<glyph unicode="&#xa6;" d="M128 -64h64v384h-64v-384zM128 448h64v384h-64v-384z" />
<glyph unicode="&#xab;" d="M0 320h64v-128h32v-64h32v-64h64v128h-32v64h-32v64h192v128h-192v64h32v64h32v128h-64v-64h-32v-64h-32v-128h-64v-128z" />
<glyph unicode="&#xad;" d="M64 320h192v128h-192v-128z" />
<glyph unicode="&#xb6;" d="M64 -64h64v896h-64v-896zM192 -64h64v896h-64v-896z" />
<glyph unicode="&#xbb;" d="M0 320h192v-64h-32v-64h-32v-128h64v64h32v64h32v128h64v128h-64v128h-32v64h-32v64h-64v-128h32v-64h32v-64h-192v-128z" />
<glyph unicode="&#xbc;" d="M128 192h64v640h-64v-640zM192 64v-256h128v-128h64v640h-64v-128h-64v-64h-32v-64h-32zM256 0h32v64h32v-128h-64v64z" />
<glyph unicode="&#xbd;" d="M0 192h64v640h-64v-640zM128 -64v-256h192v128h-128v64h32v64h32v64h32v64h32v128h-32v64h-32v64h-128v-128h96v-128h-32v-64h-32v-64h-32z" />
<glyph unicode="&#xbe;" d="M0 192h128v64h32v64h32v128h-32v128h32v128h-32v64h-32v64h-128v-128h96v-128h-96v-128h96v-128h-96v-128zM128 64v-256h128v-128h64v640h-64v-128h-64v-64h-32v-64h-32zM192 0h32v64h32v-128h-64v64z" />
<glyph unicode="&#xf7;" d="M0 320h320v128h-320v-128zM128 64h64v128h-64v-128zM128 576h64v128h-64v-128z" />
<glyph unicode="&#x2000;" horiz-adv-x="416" />
<glyph unicode="&#x2001;" horiz-adv-x="832" />
<glyph unicode="&#x2002;" horiz-adv-x="416" />
<glyph unicode="&#x2003;" horiz-adv-x="832" />
<glyph unicode="&#x2004;" horiz-adv-x="277" />
<glyph unicode="&#x2005;" horiz-adv-x="208" />
<glyph unicode="&#x2006;" horiz-adv-x="138" />
<glyph unicode="&#x2007;" horiz-adv-x="138" />
<glyph unicode="&#x2008;" horiz-adv-x="104" />
<glyph unicode="&#x2009;" horiz-adv-x="166" />
<glyph unicode="&#x200a;" horiz-adv-x="46" />
<glyph unicode="&#x2010;" d="M64 320h192v128h-192v-128z" />
<glyph unicode="&#x2011;" d="M64 320h192v128h-192v-128z" />
<glyph unicode="&#x2012;" d="M64 320h192v128h-192v-128z" />
<glyph unicode="&#x2013;" horiz-adv-x="704" d="M64 320h512v128h-512v-128z" />
<glyph unicode="&#x2014;" horiz-adv-x="1216" d="M64 320h1024v128h-1024v-128z" />
<glyph unicode="&#x2018;" d="M256 448h64v192h32v64h32v128h-64v-64h-32v-64h-32v-256z" />
<glyph unicode="&#x2019;" d="M64 448h64v64h32v64h32v256h-64v-192h-32v-64h-32v-128z" />
<glyph unicode="&#x201c;" d="M128 448h64v192h32v64h32v128h-64v-64h-32v-64h-32v-256zM256 448h64v192h32v64h32v128h-64v-64h-32v-64h-32v-256z" />
<glyph unicode="&#x201d;" d="M128 448h64v64h32v64h32v256h-64v-192h-32v-64h-32v-128zM256 448h64v64h32v64h32v256h-64v-192h-32v-64h-32v-128z" />
<glyph unicode="&#x202f;" horiz-adv-x="166" />
<glyph unicode="&#x205f;" horiz-adv-x="208" />
<glyph unicode="&#x20ac;" d="M0 192h64v-128h32v-64h32v-64h128v64h32v64h32v128h-64v-64h-32v-64h-64v64h-32v64h64v128h-64v128h64v128h-64v64h32v64h64v-64h32v-64h64v128h-32v64h-32v64h-128v-64h-32v-64h-32v-128h-64v-128h64v-128h-64v-128z" />
<glyph unicode="&#xe000;" horiz-adv-x="575" d="M0 0v575h575v-575h-575z" />
</font>
</defs>
</svg>
